PathFileType	4	(X/Y/Z)	 s10c0301.trc
DataRate	CameraRate	NumFrames	NumMarkers	Units	OrigDataRate	OrigDataStartFrame	OrigNumFrames
200	200	4	50	mm	200	1251	2000
Frame#	Time	racr			lacr			c7			jug			rlel			rdr			llel			ldr			s2			lic			ric			lasi			rasi			rpsi			lpsi			rgt			lgt			rth1			rth2			rth3			rth4			rlfc			rmfc			rsh1			rsh2			rsh3			rsh4			rlmal			rmmal			rcal			rtoe			rmt5			lth1			lth2			lth4			lth3			llfc			lmfc			llmal			lmmal			lcal			lmt5			lsh1			lsh2			lsh3			lsh4			ltoe			SBIKE			LBIKE			RBIKE			
		X1	Y1	Z1	X2	Y2	Z2	X3	Y3	Z3	X4	Y4	Z4	X5	Y5	Z5	X6	Y6	Z6	X7	Y7	Z7	X8	Y8	Z8	X9	Y9	Z9	X10	Y10	Z10	X11	Y11	Z11	X12	Y12	Z12	X13	Y13	Z13	X14	Y14	Z14	X15	Y15	Z15	X16	Y16	Z16	X17	Y17	Z17	X18	Y18	Z18	X19	Y19	Z19	X20	Y20	Z20	X21	Y21	Z21	X22	Y22	Z22	X23	Y23	Z23	X24	Y24	Z24	X25	Y25	Z25	X26	Y26	Z26	X27	Y27	Z27	X28	Y28	Z28	X29	Y29	Z29	X30	Y30	Z30	X31	Y31	Z31	X32	Y32	Z32	X33	Y33	Z33	X34	Y34	Z34	X35	Y35	Z35	X36	Y36	Z36	X37	Y37	Z37	X38	Y38	Z38	X39	Y39	Z39	X40	Y40	Z40	X41	Y41	Z41	X42	Y42	Z42	X43	Y43	Z43	X44	Y44	Z44	X45	Y45	Z45	X46	Y46	Z46	X47	Y47	Z47	X48	Y48	Z48	X49	Y49	Z49	X50	Y50	Z50	
1251	6.2550	674.696546	1314.547323	-19.612142	724.780105	1321.242506	-315.221432	683.279686	1332.366677	-159.977769	696.752879	1192.531554	-175.242704	570.168689	1064.430902	71.472624	645.217547	873.649403	-11.094293	630.614007	1082.930200	-461.696809	673.007921	886.339322	-371.904413	158.766413	1124.807208	-113.662904	277.878749	1144.303491	-307.047007	381.580371	1101.988880	-45.365871	293.770598	1056.437331	-291.593729	358.685477	1015.055071	-59.090175	228.830177	1163.060618	-69.652736	200.552747	1188.744502	-178.030531	266.000839	985.374852	34.262067	167.940782	1027.329532	-334.844891	288.390810	847.703823	29.359727	312.369980	770.807130	-6.886694	294.727158	688.855071	-24.296010	344.796967	778.743354	-23.957466	313.674872	588.887465	-62.378519	258.333211	592.680282	-165.548007	250.003390	494.802234	-13.926158	236.199012	408.413148	-29.357878	185.210534	338.636190	-24.399563	257.026488	402.130201	-61.295986	137.688940	246.265817	-33.133835	152.404802	255.733503	-118.439604	78.241773	237.259453	-80.619021	311.535246	168.896514	-90.995723	227.799756	158.667728	-26.095557	270.440531	940.916899	-366.768097	355.171080	920.333313	-364.353528	372.605498	950.085852	-351.105606	418.832221	858.920155	-372.042683	501.606799	786.192915	-364.130611	492.391086	753.601990	-244.614090	159.483072	617.802355	-376.469254	170.544587	602.440722	-296.088893	104.107193	640.224470	-330.981716	148.448334	467.804692	-389.437888	389.506466	740.345512	-399.798504	328.439426	678.664933	-388.827246	241.761542	656.102351	-387.076750	344.487026	653.719187	-363.420229	208.433803	408.732194	-329.593615	-204.465027	834.264858	-224.202184	-78.292060	81.729727	-423.520044	-102.693312	80.398268	-24.357900	
1252	6.2600	673.658141	1315.031393	-21.265098	724.297450	1321.398045	-316.189943	682.689539	1332.310114	-161.276438	697.651458	1192.467140	-175.655918	570.261168	1064.670905	70.596385	645.438398	873.294477	-10.137606	630.866206	1082.401969	-462.109398	672.772986	886.523674	-372.179889	160.551597	1122.495745	-111.954731	276.546716	1143.210598	-306.870632	383.434955	1100.520868	-46.773291	292.716444	1055.874355	-292.588360	360.398515	1013.244047	-61.024175	231.019966	1160.691084	-69.142357	200.351927	1186.859410	-176.752128	270.914390	985.155762	34.819901	165.226308	1025.293686	-333.498508	288.026427	847.202380	29.017046	309.707388	769.378021	-6.692463	289.855608	687.648793	-23.126112	341.934587	776.434542	-24.576568	305.516280	587.064471	-61.163051	249.139805	591.871250	-163.872121	242.764068	492.472799	-13.447527	228.766127	406.194155	-29.542411	178.065497	336.381137	-24.461054	249.187171	400.260961	-61.815971	129.989890	244.381052	-33.012081	144.471513	253.725258	-118.102155	70.765470	236.896502	-80.756522	302.375918	163.411117	-91.553696	218.476020	154.821940	-26.558365	270.484473	942.330639	-366.106095	356.017595	924.780193	-364.658127	372.396479	954.710744	-350.580890	421.705421	865.554357	-372.704535	506.804853	794.517330	-364.287697	498.310386	760.670797	-244.385332	165.429683	622.163576	-374.589350	177.509681	607.572729	-294.762604	109.445992	643.494586	-330.342533	158.411313	472.336376	-388.664331	394.606647	748.397244	-399.057770	334.032925	686.336557	-388.524555	247.665524	663.192767	-385.986910	350.686344	660.781844	-363.896630	219.702510	414.688601	-328.898172	-204.464714	834.267255	-224.191589	-78.312868	81.723160	-423.530726	-102.684947	80.407084	-24.344909	
1253	6.2650	672.663547	1315.537081	-22.957803	723.838843	1321.413975	-317.385715	682.197138	1332.197262	-162.610691	698.298331	1192.317792	-176.035394	570.398089	1064.923223	69.538807	645.848545	872.695843	-8.643602	630.873738	1081.802864	-462.615107	672.544326	886.628888	-372.483213	162.270092	1120.637323	-110.457048	275.280334	1142.549911	-307.094859	385.278233	1099.214845	-48.209705	291.787613	1055.450746	-293.913010	361.872044	1011.861164	-63.108142	232.265068	1159.247577	-68.320619	200.179536	1185.215594	-175.578530	275.046970	986.524911	34.949230	162.707948	1023.640699	-332.204855	287.775013	847.080139	28.771644	307.409836	768.451254	-6.586936	285.368079	686.883242	-21.580232	339.073348	774.702542	-24.796086	297.609006	585.831773	-59.333972	240.523909	591.434899	-161.970795	235.539435	490.982563	-12.559081	221.526303	404.862423	-29.275747	171.052976	334.889293	-24.286776	241.552819	399.248673	-61.843348	122.336089	243.153298	-32.925726	136.618413	252.357997	-117.705479	63.196337	237.284213	-80.831985	292.980322	158.354725	-92.112261	208.942622	151.709514	-27.011791	270.179245	943.831337	-365.649103	356.368816	929.052388	-365.154629	371.846018	959.305395	-350.690172	423.761682	871.634118	-373.120033	511.561962	802.570574	-364.832376	504.108669	768.097042	-244.402680	172.066236	626.554500	-373.400971	184.158770	611.924412	-293.691966	115.186232	645.933209	-329.431655	168.504707	476.186381	-387.997871	399.873660	756.195931	-398.047860	339.881235	693.463382	-388.232967	253.657042	669.636576	-384.530407	356.970523	667.407120	-364.462973	231.082226	420.061073	-328.312752	-204.483135	834.266629	-224.181874	-78.285499	81.744469	-423.535059	-102.690608	80.415404	-24.343498	
1254	6.2700	671.797093	1316.026126	-24.608621	723.293153	1321.278677	-318.865067	681.705984	1331.911363	-163.982307	699.483216	1192.057359	-176.245606	570.602868	1065.282602	68.563897	646.054252	872.745654	-8.859267	630.603711	1081.128792	-463.334158	672.300232	886.689030	-372.819086	163.843088	1119.699570	-109.810822	274.297296	1141.929927	-307.232499	387.116697	1098.037883	-49.776058	290.892331	1055.214448	-295.439111	363.166893	1010.834296	-65.210140	232.315296	1159.138058	-66.175240	200.000466	1184.016358	-174.756865	277.766510	987.169188	34.038830	160.333337	1022.475784	-330.918133	287.676685	847.356913	28.713582	305.123194	767.879026	-5.918178	281.234761	686.657440	-19.754395	336.786268	773.484183	-24.932307	290.026731	585.201024	-57.029843	232.652349	591.399965	-159.926622	228.370762	490.493658	-11.243781	214.378066	404.527786	-28.455486	164.111116	334.256493	-23.679224	234.123874	399.164934	-61.391908	114.664672	242.593031	-32.767821	128.779186	251.439088	-117.192402	55.677476	238.432854	-80.913856	283.432828	153.933598	-92.597605	199.358610	149.089352	-27.407767	269.605454	945.504532	-365.400411	356.238545	933.054622	-365.728300	370.965746	963.542922	-350.824491	425.024077	877.582559	-374.679329	515.917251	810.228046	-365.634767	509.728750	775.669133	-244.657547	178.664305	629.947031	-371.959783	191.193358	615.302783	-292.818610	121.306002	647.606963	-328.682323	178.822703	479.337319	-387.294039	405.226805	763.508534	-397.021673	345.746921	700.190551	-387.988855	259.803592	675.465611	-383.432681	363.475979	673.686796	-365.119822	242.621369	424.571623	-327.471603	-204.495754	834.268468	-224.175330	-78.268304	81.775149	-423.545498	-102.689802	80.387303	-24.337588	
